# xmcd
#
# Track frame offsets: 
#        150
#        18360
#        36245
#        53020
#        66777
#        85502
#        101142
#        120817
#        136315
#        154540
#        172502
#        189572
#
# Disc length: 2768 seconds
#
# Revision: 4
# Processed by: cddbd v1.5.2PL0 Copyright (c) Steve Scherf et al.
# Submitted via: ExactAudioCopy v1.3
#
DISCID=850ace0c
DTITLE=芝麻，龍眼 - 民歌往事～懷舊篇 [CD 02)
DYEAR=1998
DGENRE=Pop
TTITLE0=想你
TTITLE1=龍的傳人
TTITLE2=微風往事
TTITLE3=牽掛
TTITLE4=抉擇
TTITLE5=海裡來的沙
TTITLE6=偶然
TTITLE7=外婆的澎湖灣
TTITLE8=蘭花草
TTITLE9=秋蟬
TTITLE10=綿綿不斷的小雨
TTITLE11=愛情速食店
EXTD=YEAR: 1998
EXTT0=
EXTT1=
EXTT2=
EXTT3=
EXTT4=
EXTT5=
EXTT6=
EXTT7=
EXTT8=
EXTT9=
EXTT10=
EXTT11=
PLAYORDER=
